<?xml version="1.0" encoding="UTF-8"?>
<svg width="4500" height="1100" viewBox="0 0 4500 1100" xmlns="http://www.w3.org/2000/svg" role="img" aria-label="CampusBoard wordmark logo">
  <title>CampusBoard wordmark logo</title>
  <desc>Wide, bold geometric wordmark with Campus in white and Board in soft lavender. The A has a black mortarboard cap peak, and the B contains two integrated pushpin details.</desc>
  <g id="wordmark" shape-rendering="geometricPrecision">
    <path d="M764 -24C1145 -24 1414 208 1456 560H1037C1011 420 915 336 772 336C569 336 460 484 460 744C460 1005 570 1154 772 1154C915 1154 1012 1069 1037 928H1456C1415 1280 1145 1514 764 1514C357 1514 40 1242 40 744C40 250 357 -24 764 -24Z" fill="#FFFFFF" transform="matrix(0.24414062 0 0 -0.24414062 161.709 731.885)"/><path d="M0 0H455L528 245H1026L1097 0H1565L1060 1490H500ZM624 565 628 578C682 758 732 932 781 1113C829 932 878 758 930 578L934 565Z" fill="#FFFFFF" transform="matrix(0.24414062 0 0 -0.24414062 544.455 731.885)"/><path d="M80 0H488V576C488 672 480 863 475 1047C523 865 573 677 604 576L780 0H1116L1289 576C1320 681 1372 878 1419 1065C1415 876 1406 676 1406 576V0H1814V1490H1191L1059 1024C1030 923 986 750 948 597C910 750 865 923 836 1024L702 1490H80Z" fill="#FFFFFF" transform="matrix(0.24414062 0 0 -0.24414062 944.535 731.885)"/><path d="M80 0H496V450H713C1069 450 1292 651 1292 970C1292 1289 1069 1490 713 1490H80ZM496 792V1148H682C807 1148 886 1079 886 970C886 861 807 792 682 792Z" fill="#FFFFFF" transform="matrix(0.24414062 0 0 -0.24414062 1424.938 731.885)"/><path d="M722 -24C1111 -24 1364 194 1364 530V1490H960V564C960 425 862 326 722 326C584 326 484 426 484 564V1490H80V530C80 193 332 -24 722 -24Z" fill="#FFFFFF" transform="matrix(0.24414062 0 0 -0.24414062 1766.912 731.885)"/><path d="M704 -24C1108 -24 1339 154 1339 466C1339 704 1194 836 852 899L732 921C577 949 510 987 510 1058C510 1133 592 1186 709 1186C833 1186 916 1122 926 1018H1308C1298 1330 1073 1514 701 1514C339 1514 92 1321 92 1038C92 817 248 664 536 609L684 581C852 549 928 507 928 435C928 357 840 304 709 304C558 304 463 375 457 496H64C64 161 291 -24 704 -24Z" fill="#FFFFFF" transform="matrix(0.24414062 0 0 -0.24414062 2137.451 731.885)"/><path d="M80 0H782C1105 0 1296 178 1296 422C1296 632 1150 776 958 783V785C1131 818 1246 945 1246 1118C1246 1335 1066 1490 726 1490H80ZM484 312V606H704C805 606 870 548 870 459C870 370 805 312 704 312ZM484 900V1178H679C771 1178 830 1123 830 1039C830 955 771 900 679 900Z" fill="#C4B5FD" transform="matrix(0.24414062 0 0 -0.24414062 2497.980 731.885)"/><path d="M764 -24C1169 -24 1488 247 1488 744C1488 1242 1169 1514 764 1514C357 1514 40 1242 40 744C40 250 357 -24 764 -24ZM764 336C569 336 460 487 460 744C460 1002 569 1154 764 1154C960 1154 1068 1002 1068 744C1068 487 960 336 764 336Z" fill="#C4B5FD" transform="matrix(0.24414062 0 0 -0.24414062 2840.932 731.885)"/><path d="M0 0H455L528 245H1026L1097 0H1565L1060 1490H500ZM624 565 628 578C682 758 732 932 781 1113C829 932 878 758 930 578L934 565Z" fill="#C4B5FD" transform="matrix(0.24414062 0 0 -0.24414062 3231.979 731.885)"/><path d="M80 0H496V466H682L905 0H1338L1065 556C1210 642 1292 785 1292 970C1292 1289 1069 1490 713 1490H80ZM496 788V1152H682C807 1152 886 1079 886 970C886 861 807 788 682 788Z" fill="#C4B5FD" transform="matrix(0.24414062 0 0 -0.24414062 3632.059 731.885)"/><path d="M662 0C1121 0 1416 292 1416 744C1416 1197 1116 1490 656 1490H80V0ZM496 344V1146H630C881 1146 996 1017 996 744C996 473 885 344 642 344Z" fill="#C4B5FD" transform="matrix(0.24414062 0 0 -0.24414062 3982.822 731.885)"/>
    <g id="mortarboard-A-peak">
<polygon points="525.35,389.37 735.50,348.57 945.64,389.37 735.50,430.17" fill="#ffffff"/>
<line x1="592.60" y1="399.57" x2="878.39" y2="399.57" stroke="#ffffff" stroke-width="13.00" stroke-linecap="round"/>
<line x1="832.16" y1="399.57" x2="891.00" y2="448.87" stroke="#ffffff" stroke-width="9.00" stroke-linecap="round"/>
<circle cx="891.00" cy="448.87" r="7.00" fill="#ffffff"/>
</g>
    <g id="pushpin-B-bumps">
<g fill="#C4B5FD" stroke="#C4B5FD" stroke-linecap="round" stroke-linejoin="round">
  <line x1="2686.73" y1="479.06" x2="2725.32" y2="485.61" stroke-width="9.00"/>
  <circle cx="2686.73" cy="479.06" r="18.00"/>
  <line x1="2686.73" y1="620.94" x2="2725.32" y2="614.39" stroke-width="9.00"/>
  <circle cx="2686.73" cy="620.94" r="18.00"/>
</g>
</g>
  </g>
</svg>
